Coordinates
version=1
nRows=18
nColumns=34
inDegrees=no

Units are S.I. units (second, meters, Newtons, ...)
If the header above contains a line with 'inDegrees', this indicates whether rotational values are in degrees (yes) or radians (no).

endheader
time	pelvis_tilt	pelvis_list	pelvis_rotation	pelvis_tx	pelvis_ty	pelvis_tz	hip_flexion_r	hip_adduction_r	hip_rotation_r	knee_angle_r	ankle_angle_r	subtalar_angle_r	mtp_angle_r	hip_flexion_l	hip_adduction_l	hip_rotation_l	knee_angle_l	ankle_angle_l	subtalar_angle_l	mtp_angle_l	lumbar_extension	lumbar_bending	lumbar_rotation	arm_flex_r	arm_add_r	arm_rot_r	elbow_flex_r	pro_sup_r	arm_flex_l	arm_add_l	arm_rot_l	elbow_flex_l	pro_sup_l
0.72	-0.00807931	-0.205597	0.0282563	0.254764	0.921536	-0.240788	0.0542242	0.275459	0.0097387	0.143858	0.193239	-0.0811423	-0.0123635	0.585967	-0.312544	0.0352327	1.14066	0.19134	-0.0322713	-0.0123711	-0.228696	0.300896	0.101009	0.101152	-0.291057	-0.032578	0.743862	2.13541	-0.171041	-0.206978	-0.201134	0.743018	2.0758
0.73	-0.00867447	-0.203008	0.0193798	0.263494	0.921658	-0.240496	0.0372972	0.273339	0.0217525	0.134988	0.198973	-0.0748427	-0.0123598	0.599335	-0.307162	0.03023	1.1038	0.197881	-0.0290545	-0.0123674	-0.231863	0.297522	0.107166	0.110489	-0.291299	-0.0269476	0.747946	2.13605	-0.167996	-0.207039	-0.198427	0.742939	2.07588
0.74	-0.009439	-0.200535	0.0108798	0.272204	0.921647	-0.240237	0.0205721	0.271111	0.0347645	0.12575	0.203383	-0.0708743	-0.0123562	0.611059	-0.301646	0.0256931	1.06326	0.204027	-0.0227065	-0.0123636	-0.234796	0.294127	0.11231	0.119869	-0.291536	-0.0202126	0.751962	2.13687	-0.165059	-0.206904	-0.196407	0.742359	2.07661
0.75	-0.0101161	-0.198149	0.00277221	0.280915	0.921526	-0.240006	0.00369994	0.268769	0.0486649	0.116148	0.206784	-0.0690226	-0.0123525	0.620727	-0.296054	0.0215817	1.01911	0.210135	-0.0127757	-0.0123599	-0.237734	0.290654	0.116501	0.129137	-0.291697	-0.0127173	0.756051	2.13797	-0.162206	-0.206519	-0.195296	0.741228	2.07765
0.76	-0.0104913	-0.195816	-0.00499155	0.289644	0.921314	-0.239796	-0.0135717	0.266275	0.0631737	0.106292	0.209611	-0.0687895	-0.0123488	0.627975	-0.290481	0.0177784	0.971443	0.216544	0.0011017	-0.0123562	-0.240884	0.287028	0.119865	0.138121	-0.291723	-0.00484717	0.760337	2.13942	-0.159389	-0.205856	-0.19519	0.73948	2.07872
0.77	-0.0104355	-0.193514	-0.0125109	0.298403	0.921025	-0.239594	-0.0313383	0.263576	0.077861	0.0963999	0.212356	-0.0694573	-0.0123452	0.632562	-0.285049	0.014153	0.920366	0.2235	0.019094	-0.0123525	-0.24438	0.28318	0.12257	0.146669	-0.291575	0.00304484	0.764896	2.14126	-0.156555	-0.204912	-0.196067	0.737059	2.07964
0.78	-0.00993139	-0.19124	-0.0199162	0.307203	0.920666	-0.239391	-0.0495137	0.260632	0.0921986	0.0867635	0.215483	-0.0701877	-0.0123415	0.634404	-0.279889	0.0106261	0.866012	0.231093	0.0410762	-0.0123487	-0.248253	0.279076	0.124787	0.154663	-0.29124	0.0106923	0.769733	2.14343	-0.153667	-0.203705	-0.197814	0.733945	2.08033
0.79	-0.00907558	-0.189018	-0.0273459	0.316048	0.920238	-0.239175	-0.0678468	0.257431	0.105637	0.0777123	0.219362	-0.0701405	-0.0123379	0.633574	-0.275126	0.00721785	0.808526	0.239215	0.0665612	-0.012345	-0.252428	0.274726	0.126674	0.162036	-0.290734	0.0179423	0.774779	2.14582	-0.150711	-0.202265	-0.200249	0.730173	2.08084
0.8	-0.00805063	-0.186902	-0.0349263	0.324939	0.91973	-0.238939	-0.0859771	0.253995	0.117695	0.069559	0.224211	-0.0685987	-0.0123342	0.630263	-0.27086	0.00407047	0.748065	0.247552	0.0946704	-0.0123413	-0.256752	0.270182	0.128352	0.168776	-0.290087	0.0247555	0.779905	2.14831	-0.1477	-0.200632	-0.203154	0.725842	2.08126
0.81	-0.00707345	-0.184959	-0.042756	0.333877	0.919136	-0.238678	-0.103521	0.250377	0.128061	0.0625455	0.230067	-0.0650857	-0.0123306	0.624711	-0.267161	0.0014375	0.684797	0.255612	0.124154	-0.0123376	-0.261035	0.265525	0.129898	0.17491	-0.289341	0.0311833	0.784945	2.15074	-0.14467	-0.198855	-0.206297	0.721106	2.08172
0.82	-0.00633563	-0.183259	-0.0508945	0.342864	0.918447	-0.238393	-0.120162	0.246653	0.136651	0.0568014	0.23678	-0.0594424	-0.0123269	0.617142	-0.26406	-0.000358247	0.61893	0.262774	0.153454	-0.0123339	-0.265113	0.260848	0.131354	0.180496	-0.288537	0.0373321	0.789732	2.15298	-0.141661	-0.196988	-0.209451	0.716158	2.08229
0.83	-0.00595797	-0.181859	-0.0593579	0.351905	0.917664	-0.238087	-0.135733	0.242903	0.14364	0.0523271	0.244047	-0.0518459	-0.0123233	0.607704	-0.261555	-0.000993978	0.550764	0.26837	0.180821	-0.0123302	-0.268893	0.256235	0.132727	0.185598	-0.287711	0.0433243	0.79413	2.15493	-0.138712	-0.195089	-0.212418	0.711205	2.08299
0.84	-0.00595836	-0.180797	-0.0681217	0.361007	0.916793	-0.237764	-0.150249	0.239196	0.149417	0.0490053	0.251474	-0.0427572	-0.0123196	0.596465	-0.259612	-0.000235651	0.48077	0.271773	0.204461	-0.0123265	-0.272384	0.251743	0.134008	0.190269	-0.286887	0.0492613	0.798057	2.15653	-0.135843	-0.193213	-0.215034	0.706437	2.08372
0.85	-0.00623962	-0.180093	-0.0771295	0.370186	0.91585	-0.237435	-0.163909	0.235574	0.154489	0.0466416	0.258659	-0.0328001	-0.012316	0.583444	-0.258177	0.00196612	0.409691	0.27251	0.222732	-0.0123227	-0.275698	0.247389	0.13518	0.194532	-0.286081	0.0551963	0.801501	2.15774	-0.133053	-0.191413	-0.217185	0.701998	2.08436
0.86	-0.00660717	-0.179739	-0.0863023	0.379454	0.914855	-0.237109	-0.177036	0.232039	0.159339	0.0450272	0.265285	-0.0225895	-0.0123124	0.568688	-0.25718	0.00538893	0.338642	0.270366	0.234356	-0.012319	-0.279024	0.243151	0.136222	0.198374	-0.285297	0.0611164	0.804519	2.15857	-0.130317	-0.189733	-0.21881	0.697965	2.0847
0.87	-0.00680698	-0.179705	-0.0955474	0.388826	0.913833	-0.236796	-0.190001	0.228551	0.164248	0.0440106	0.271201	-0.0125245	-0.0123087	0.552368	-0.256547	0.00947504	0.269165	0.265481	0.238633	-0.0123153	-0.282588	0.238968	0.13711	0.201739	-0.284534	0.0669369	0.80722	2.15905	-0.127589	-0.18821	-0.219905	0.694341	2.0846
0.88	-0.00657623	-0.179931	-0.104764	0.398312	0.912808	-0.236506	-0.203123	0.225021	0.169139	0.0435641	0.276482	-0.00259521	-0.0123051	0.534849	-0.256191	0.0133232	0.203216	0.2584	0.235606	-0.0123116	-0.286602	0.234747	0.137821	0.204535	-0.283784	0.072505	0.809751	2.15926	-0.124804	-0.186868	-0.220519	0.691059	2.08395
0.89	-0.00569186	-0.180324	-0.113847	0.407917	0.9118	-0.236245	-0.216583	0.221305	0.173464	0.0438264	0.281449	0.00774902	-0.0123015	0.516718	-0.256005	0.0157663	0.143023	0.250055	0.226102	-0.012308	-0.291219	0.230362	0.138323	0.206637	-0.283032	0.0776141	0.812265	2.15932	-0.121883	-0.185723	-0.220748	0.688002	2.08275
